HIERARCHY
ROOT Hips
{
 OFFSET 0.000000 0.000000 0.000000
 CHANNELS 6 Xposition Yposition Zposition Yrotation Xrotation Zrotation
 JOINT Chest
 {
  OFFSET 0.000000 9.585900 0.002600
  CHANNELS 3 Yrotation Xrotation Zrotation
  JOINT Chest2
  {
   OFFSET 0.000000 9.601200 -0.005300
   CHANNELS 3 Yrotation Xrotation Zrotation
   JOINT Chest3
   {
    OFFSET 0.000000 9.561800 0.000000
    CHANNELS 3 Yrotation Xrotation Zrotation
    JOINT Chest4
    {
     OFFSET 0.000000 9.552100 0.000000
     CHANNELS 3 Yrotation Xrotation Zrotation
     JOINT Neck
     {
      OFFSET 0.000000 14.453000 0.000000
      CHANNELS 3 Yrotation Xrotation Zrotation
      JOINT Head
      {
       OFFSET 0.000000 8.936500 -0.011300
       CHANNELS 3 Yrotation Xrotation Zrotation
       End Site
       {
        OFFSET 0.000000 17.073600 -0.006000
       }
      }
     }
     JOINT RightCollar
     {
      OFFSET -2.921100 9.558500 0.000000
      CHANNELS 3 Yrotation Xrotation Zrotation
      JOINT RightShoulder
      {
       OFFSET -13.519700 0.000000 0.000000
       CHANNELS 3 Yrotation Xrotation Zrotation
       JOINT RightElbow
       {
        OFFSET 0.000000 -29.696600 0.000000
        CHANNELS 3 Yrotation Xrotation Zrotation
        JOINT RightWrist
        {
         OFFSET 0.000000 -24.004700 0.000000
         CHANNELS 3 Yrotation Xrotation Zrotation
         End Site
         {
          OFFSET 0.000000 -17.728500 0.000000
         }
        }
       }
      }
     }
     JOINT LeftCollar
     {
      OFFSET 2.921100 9.558500 0.000000
      CHANNELS 3 Yrotation Xrotation Zrotation
      JOINT LeftShoulder
      {
       OFFSET 13.519700 0.000000 0.000000
       CHANNELS 3 Yrotation Xrotation Zrotation
       JOINT LeftElbow
       {
        OFFSET 0.000000 -29.696600 0.000000
        CHANNELS 3 Yrotation Xrotation Zrotation
        JOINT LeftWrist
        {
         OFFSET 0.000000 -24.004700 0.000000
         CHANNELS 3 Yrotation Xrotation Zrotation
         End Site
         {
          OFFSET 0.000000 -17.728500 0.000000
         }
        }
       }
      }
     }
    }
   }
  }
 }
 JOINT RightHip
 {
  OFFSET -7.771700 -0.012900 -0.001300
  CHANNELS 3 Yrotation Xrotation Zrotation
  JOINT RightKnee
  {
   OFFSET 0.000000 -40.869800 0.001200
   CHANNELS 3 Yrotation Xrotation Zrotation
   JOINT RightAnkle
   {
    OFFSET 0.000000 -39.717900 0.002100
    CHANNELS 3 Yrotation Xrotation Zrotation
    JOINT RightToe
    {
     OFFSET 0.000000 -4.965400 11.033500
     CHANNELS 3 Yrotation Xrotation Zrotation
     End Site
     {
      OFFSET 0.000000 -1.423100 5.872300
     }
    }
   }
  }
 }
 JOINT LeftHip
 {
  OFFSET 7.771700 -0.012900 -0.001300
  CHANNELS 3 Yrotation Xrotation Zrotation
  JOINT LeftKnee
  {
   OFFSET 0.000000 -40.869800 0.001200
   CHANNELS 3 Yrotation Xrotation Zrotation
   JOINT LeftAnkle
   {
    OFFSET 0.000000 -39.717900 0.002100
    CHANNELS 3 Yrotation Xrotation Zrotation
    JOINT LeftToe
    {
     OFFSET 0.000000 -4.965400 11.033500
     CHANNELS 3 Yrotation Xrotation Zrotation
     End Site
     {
      OFFSET 0.000000 -1.423100 5.872300
     }
    }
   }
  }
 }
}
MOTION
Frames: 8
Frame Time: 0.008333
0.000000 85.388000 0.000000 0.000000 -5.767877 0.000000 0.000000 11.653817 0.000000 0.000000 -5.885947 0.000000 0.000000 -0.000000 0.000000 0.000000 -0.000000 0.000000 0.000000 12.528835 0.000000 0.000000 0.711642 0.000000 0.000000 -0.000000 0.000000 0.000000 0.000000 -90.000000 0.000000 -2.309062 0.000000 0.000000 2.309062 0.000000 0.000000 -0.000000 0.000000 0.000000 -0.000000 90.000000 0.000000 -2.309062 0.000000 0.000000 2.309062 0.000000 0.000000 8.520406 0.000000 0.000000 1.905762 0.000000 -0.000000 -4.658285 0.000000 0.000000 -0.000000 0.000000 0.000000 8.520406 0.000000 0.000000 1.905762 0.000000 -0.000000 -4.658285 0.000000 0.000000 -0.000000 0.000000
-59.956009 57.712206 11.353583 178.277139 -47.219270 -3.435650 2.964840 21.222484 2.114404 1.489569 12.160213 1.107577 1.878386 15.128381 1.426965 1.512096 12.211028 1.114439 1.282165 18.316632 3.815520 1.171870 -1.750220 6.578269 5.383019 6.059034 2.523775 -28.221725 -30.288725 -3.715339 -92.332201 -59.421108 117.925194 6.093921 -2.134249 -43.152468 -8.426037 -2.465334 -1.896945 -0.337898 -17.623853 7.244559 21.598962 -28.038157 -64.917679 6.971131 -0.489103 23.935565 6.855929 -24.262924 -2.091923 -35.822528 75.073464 -40.435614 6.138283 -17.167996 13.399460 0.043102 -0.196708 0.018768 -7.084196 -21.793703 5.763135 88.646949 81.335891 88.406230 0.660392 -21.988738 -18.456701 0.028103 0.135377 0.004559
-59.959733 57.710625 11.351386 178.284704 -47.158770 -3.431326 2.973072 21.230385 2.119176 1.494922 12.160306 1.110650 1.882609 15.126811 1.430264 1.528977 12.229493 1.120903 1.363295 18.307195 3.811129 1.270729 -1.781487 6.558823 5.465769 6.019914 2.563145 -28.101857 -30.486035 -3.888070 -91.243807 -59.137453 116.704795 5.946014 -2.259201 -43.223625 -8.415317 -2.471202 -1.904507 -0.342044 -17.630654 7.249998 21.626029 -28.043942 -64.999654 6.988904 -0.499829 23.940182 6.867213 -24.320964 -2.111976 -35.857661 75.075009 -40.466702 6.127169 -17.165175 13.408459 0.039694 -0.196208 0.018235 -7.063381 -21.857509 5.759078 88.670607 81.339821 88.438617 0.663879 -22.002025 -18.443724 0.021117 0.142660 0.005377
-59.966119 57.711084 11.346314 178.291692 -47.107507 -3.411533 2.979036 21.248319 2.109713 1.500409 12.160620 1.113860 1.886574 15.126813 1.434581 1.537238 12.230160 1.123131 1.432528 18.305298 3.811001 1.397842 -1.788034 6.536184 5.563484 5.993294 2.607749 -27.967759 -30.689071 -4.079392 -90.191457 -58.859344 115.498493 5.805324 -2.396965 -43.303140 -8.400857 -2.460017 -1.911193 -0.343603 -17.641091 7.254042 21.649774 -28.045912 -65.078076 7.008161 -0.513253 23.948790 6.877323 -24.367794 -2.144142 -35.893129 75.080684 -40.518492 6.136292 -17.169826 13.424828 0.024960 -0.193890 0.014734 -7.049114 -21.911518 5.739396 88.703128 81.341284 88.466632 0.661840 -22.008616 -18.427816 0.014748 0.141366 0.004982
-59.969196 57.714309 11.338401 178.294091 -47.071629 -3.407900 2.998192 21.280226 2.123070 1.506118 12.161330 1.117394 1.922115 15.179480 1.451838 1.515659 12.178518 1.119902 1.504845 18.307741 3.813435 1.529990 -1.786408 6.517169 5.663978 5.960392 2.652917 -27.818406 -30.894090 -4.289061 -89.184334 -58.591713 114.316771 5.675449 -2.529589 -43.391625 -8.388160 -2.449557 -1.917552 -0.342442 -17.656729 7.254898 21.666981 -28.044321 -65.149486 7.027736 -0.524222 23.956974 6.892799 -24.398700 -2.156245 -35.924435 75.079341 -40.541654 6.130209 -17.160782 13.427078 0.033916 -0.200112 0.017467 -7.037214 -21.946247 5.736930 88.710566 81.342978 88.478844 0.657089 -22.006520 -18.420180 0.011201 0.132764 0.005929
-59.971156 57.714255 11.333080 178.307239 -47.004012 -3.418137 3.010342 21.279800 2.141898 1.512293 12.163028 1.121216 1.939744 15.198611 1.461418 1.488676 12.125684 1.113834 1.604160 18.352343 3.823087 1.667489 -1.776549 6.503599 5.787232 5.956191 2.701076 -27.652744 -31.097878 -4.509217 -88.237321 -58.341059 113.175400 5.551343 -2.629765 -43.491898 -8.352098 -2.405800 -1.926226 -0.340501 -17.676270 7.252894 21.674785 -28.040949 -65.211011 7.026988 -0.528649 23.960806 6.908587 -24.461793 -2.164653 -35.983329 75.073719 -40.586579 6.131121 -17.151077 13.426058 0.036129 -0.207345 0.024406 -7.026387 -22.014082 5.747387 88.713433 81.350120 88.498163 0.642324 -22.013661 -18.412957 0.017323 0.131017 0.010183
-59.974679 57.715350 11.325961 178.314699 -46.944264 -3.412083 3.023799 21.285450 2.150293 1.518340 12.165575 1.124535 1.947463 15.201736 1.465798 1.470327 12.091636 1.111558 1.708424 18.403245 3.835306 1.812470 -1.753905 6.496613 5.907682 5.946968 2.742641 -27.464012 -31.303632 -4.733596 -87.341661 -58.111381 112.059630 5.422750 -2.688967 -43.604896 -8.318304 -2.370153 -1.934868 -0.338274 -17.693853 7.251980 21.669911 -28.050620 -65.262069 6.999412 -0.526028 23.962067 6.920096 -24.515824 -2.180339 -36.019544 75.080122 -40.634638 6.129068 -17.155307 13.445390 0.026692 -0.211889 0.020670 -6.973869 -22.074294 5.738164 88.696503 81.365969 88.523571 0.620768 -22.028473 -18.403569 0.041547 0.125184 0.015234
-59.976181 57.716058 11.318849 178.319697 -46.880235 -3.412730 3.028537 21.253447 2.156364 1.539296 12.199660 1.136065 1.955057 15.205246 1.469517 1.512500 12.150417 1.123865 1.758592 18.369634 3.846432 1.965808 -1.714375 6.495960 5.964700 5.844815 2.767179 -27.250664 -31.513665 -4.960183 -86.464786 -57.903287 110.939039 5.288249 -2.726770 -43.727216 -8.347391 -2.434217 -1.932758 -0.352771 -17.718832 7.257542 21.656106 -28.074754 -65.293321 7.138619 -0.550168 23.966736 6.927040 -24.574503 -2.189288 -36.043845 75.076500 -40.655291 6.122901 -17.148311 13.445552 0.029475 -0.213384 0.023333 -6.953082 -22.136883 5.738333 88.707292 81.369390 88.550246 0.633454 -22.036779 -18.409150 0.031262 0.127828 0.022954
